<svg width="136" height="164" viewBox="0 0 136 164" fill="none" xmlns="http://www.w3.org/2000/svg">
<g clip-path="url(#clip0_1:287)">
<path d="M93.1329 38.7671C101.254 38.7671 108.078 33.2251 110.033 25.7181L115.5 26.5321C115.607 26.5481 115.715 26.5561 115.82 26.5561C116.871 26.5561 117.791 25.7861 117.951 24.7161C118.127 23.5381 117.312 22.4401 116.135 22.2651L110.594 21.4401C110.596 21.3941 110.598 21.3491 110.598 21.3021C110.598 21.1201 110.592 20.9401 110.584 20.7601C110.584 20.7601 110.133 14.2421 109.51 11.5231C108.889 8.80406 106.975 8.22706 106.975 8.22706C97.2049 6.01506 87.2029 5.78906 84.5999 5.78906C81.9969 5.78906 81.4419 7.12106 81.4419 7.12106L78.2919 12.1171L78.2819 12.1141C78.2059 12.2361 78.136 12.3591 78.063 12.4821L78.0359 12.5251C76.5339 15.1051 75.6689 18.1011 75.6689 21.3021C75.6679 30.9481 83.4879 38.7671 93.1329 38.7671V38.7671Z" fill="white"/>
<path d="M131.535 78.076V78.074L104.793 75.906L95.5469 54.794C95.5469 54.794 95.0859 52.02 89.5389 46.318C83.9899 40.616 72.7399 42.928 72.7399 42.928C72.7399 42.928 48.8539 47.397 40.9949 49.246C33.1349 51.096 32.8269 59.109 32.8269 59.109L32.1949 63.628L17.0169 60.687C16.8259 60.65 16.6359 60.632 16.4489 60.632C15.0419 60.632 13.7779 61.632 13.5009 63.061L6.08995 101.303C5.77595 102.923 6.84395 104.505 8.46495 104.819L59.6609 114.742C59.7759 114.764 59.8909 114.766 60.0069 114.775H60.0089C59.2809 114.879 58.7179 114.74 58.7179 114.74L49.3179 112.891L46.2359 129.996L22.6759 150.359C20.9749 151.72 19.8839 153.812 19.8839 156.16C19.8839 160.264 23.2099 163.59 27.3129 163.59C29.3479 163.59 31.1909 162.772 32.5329 161.445C32.5329 161.445 60.2579 139.395 62.1079 137.854C63.9579 136.314 64.8809 134.001 64.8809 134.001C64.8809 134.001 69.422 120.053 70.66 117.127C71.508 115.123 75.5919 116.048 75.5919 116.048L98.4769 124.679L106.092 153.741C106.174 154.371 106.334 154.975 106.565 155.545H106.567C107.665 158.273 110.337 160.199 113.456 160.199C117.56 160.199 120.886 156.872 120.886 152.769C120.886 152.17 120.814 151.59 120.679 151.033C119.837 146.068 116.075 123.987 115.118 119.207C114.04 113.813 110.497 112.273 110.497 112.273C110.497 112.273 89.2289 100.715 87.8429 99.944C86.4559 99.174 86.7649 97.17 86.7649 97.17L90.6949 82.839L93.4679 88.695C93.4679 88.695 95.0869 91.969 97.5519 92.086L130.909 92.906C135.013 92.906 138.339 89.58 138.339 85.475C138.338 81.586 135.346 78.396 131.535 78.076V78.076ZM60.1039 62.807L58.3149 68.687L68.2129 70.606L47.9989 66.689L48.5469 64.193L60.1039 62.807ZM57.8549 108.28L12.5509 99.499L18.8209 67.146L31.3629 69.577L29.7449 81.144L29.1049 85.55C29.0999 85.576 29.0969 85.606 29.0929 85.632L29.0749 85.759H29.0769C29.0369 86.071 29.0139 86.388 29.0139 86.71C29.0139 90.814 32.3409 94.139 36.4439 94.139C40.5469 94.139 43.8729 90.814 43.8729 86.71C43.8729 86.392 43.8519 86.08 43.8119 85.773L46.7129 72.55L64.1259 75.924L57.8549 108.28Z" fill="white"/>
<path d="M25.05 17.0081H63.077C64.177 17.0081 65.0771 16.1121 65.0771 15.0181C65.0771 13.9241 64.177 13.0281 63.077 13.0281H25.05C23.95 13.0281 23.05 13.9241 23.05 15.0181C23.05 16.1121 23.95 17.0081 25.05 17.0081V17.0081Z" fill="white"/>
<path d="M38.0798 23.0251C36.9798 23.0251 36.0798 23.9211 36.0798 25.0151C36.0798 26.1091 36.9798 27.0051 38.0798 27.0051H61.0388C62.1388 27.0051 63.0388 26.1091 63.0388 25.0151C63.0388 23.9201 62.1388 23.0251 61.0388 23.0251H38.0798Z" fill="white"/>
<path d="M87.0981 32.7319C95.2191 32.7319 102.043 27.1899 103.998 19.6829L109.465 20.4969C109.572 20.5129 109.68 20.5209 109.785 20.5209C110.836 20.5209 111.756 19.7509 111.916 18.6809C112.092 17.5029 111.277 16.4049 110.1 16.2299L104.559 15.4049C104.561 15.3589 104.563 15.3139 104.563 15.2669C104.563 15.0849 104.557 14.9049 104.549 14.7249C104.549 14.7249 104.098 8.20691 103.475 5.48791C102.854 2.76891 100.94 2.19191 100.94 2.19191C91.1701 -0.0200937 81.1681 -0.246094 78.5641 -0.246094C75.9601 -0.246094 75.4061 1.08591 75.4061 1.08591L72.2561 6.08191L72.2461 6.07891C72.1701 6.19991 72.1001 6.32391 72.0271 6.44691L72.0001 6.48991C70.4981 9.06991 69.6331 12.0659 69.6331 15.2669C69.6331 24.9129 77.4531 32.7319 87.0981 32.7319V32.7319Z" fill="#3A3A3A"/>
<path d="M125.5 72.0411V72.0391L98.7579 69.8711L89.5119 48.7591C89.5119 48.7591 89.0509 45.9851 83.5039 40.2831C77.9549 34.5811 66.7049 36.8931 66.7049 36.8931C66.7049 36.8931 42.8189 41.3621 34.9599 43.2101C27.0999 45.0601 26.7919 53.0731 26.7919 53.0731L23.7099 75.1091L23.0699 79.5151C23.0649 79.5411 23.0619 79.5711 23.0579 79.5971L23.0399 79.7241H23.0419C23.0019 80.0361 22.9789 80.3531 22.9789 80.6751C22.9789 84.7791 26.3059 88.1041 30.4089 88.1041C34.5119 88.1041 37.8379 84.7791 37.8379 80.6751C37.8379 80.3571 37.8169 80.0451 37.7769 79.7381L42.5109 58.1571L54.0679 56.7711L52.2789 62.6511L62.1769 64.5701C63.7969 64.8831 64.8649 66.4661 64.5519 68.0871L57.1399 106.33C56.8629 107.76 55.5989 108.76 54.1919 108.76C54.1199 108.76 54.0459 108.744 53.9719 108.739C53.2439 108.843 52.6809 108.704 52.6809 108.704L43.2809 106.855L40.1989 123.96L16.6389 144.323C14.9379 145.684 13.8469 147.776 13.8469 150.124C13.8469 154.228 17.1729 157.554 21.2759 157.554C23.3109 157.554 25.1539 156.736 26.4959 155.409C26.4959 155.409 54.2209 133.359 56.0709 131.818C57.9209 130.278 58.8439 127.965 58.8439 127.965C58.8439 127.965 63.3849 114.017 64.6229 111.091C65.4709 109.087 69.5549 110.012 69.5549 110.012L92.4399 118.643L100.055 147.705C100.137 148.335 100.297 148.939 100.528 149.509H100.53C101.628 152.237 104.3 154.163 107.419 154.163C111.523 154.163 114.849 150.836 114.849 146.733C114.849 146.134 114.777 145.554 114.642 144.997C113.8 140.032 110.038 117.951 109.081 113.171C108.003 107.777 104.46 106.237 104.46 106.237C104.46 106.237 83.1929 94.6821 81.8069 93.9101C80.4199 93.1401 80.7289 91.1361 80.7289 91.1361L84.6589 76.8051L87.4319 82.6611C87.4319 82.6611 89.0509 85.9351 91.5159 86.0521L124.873 86.8721C128.977 86.8721 132.303 83.5461 132.303 79.4411C132.303 75.5511 129.311 72.3601 125.5 72.0411V72.0411Z" fill="#3A3A3A"/>
<path d="M53.9708 109.144H53.9728C54.0458 109.15 54.1198 109.165 54.1928 109.165C55.5998 109.165 56.8638 108.165 57.1408 106.735L64.5528 68.492C64.8658 66.871 63.7978 65.289 62.1778 64.975L41.9638 61.058L40.6778 66.92L58.0908 70.294L51.8198 102.648L6.51579 93.869L12.7858 61.516L25.3278 63.947L26.1598 57.997L10.9818 55.055C10.7908 55.018 10.6008 55 10.4138 55C9.00679 55 7.74279 56 7.46579 57.429L0.0547894 95.673C-0.259211 97.293 0.808789 98.875 2.42979 99.189L53.6258 109.112C53.7398 109.134 53.8548 109.135 53.9708 109.144V109.144Z" fill="#F0C42E"/>
<path d="M59.0419 8.98194C59.0419 10.0769 58.1419 10.9719 57.0419 10.9719H19.0149C17.9149 10.9719 17.0149 10.0759 17.0149 8.98194C17.0149 7.88794 17.9149 6.99194 19.0149 6.99194H57.0419C58.1419 6.99294 59.0419 7.88794 59.0419 8.98194Z" fill="#F0C52E"/>
<path d="M57.0039 18.98C57.0039 20.074 56.1039 20.97 55.0039 20.97H32.0439C30.9439 20.97 30.0439 20.074 30.0439 18.98C30.0439 17.885 30.9439 16.99 32.0439 16.99H55.0029C56.1039 16.99 57.0039 17.886 57.0039 18.98Z" fill="#F0C52E"/>
</g>
<defs>
<clipPath id="clip0_1:287">
<rect width="136" height="164" fill="white"/>
</clipPath>
</defs>
</svg>
