<svg width="125" height="100" viewBox="0 0 125 100" fill="none" xmlns="http://www.w3.org/2000/svg">
<rect width="125" height="100" fill="#FFE17F"/>
<g clip-path="url(#clip0_3:1228)">
<path d="M85.7 50.4L79.2 42.2C78.9 41.8 78.5 41.6 78 41.6H69.7V36.5C69.7 35.7 69 35 68.2 35H40.5C39.7 35 39 35.7 39 36.5C39 37.3 39.7 38 40.5 38H66.7V43.1V59.7H54.8C54.2 57.8 52.4 56.4 50.3 56.4C47.7 56.4 45.5 58.6 45.5 61.2C45.5 63.8 47.7 66 50.3 66C52.4 66 54.2 64.6 54.8 62.7H68.2C69 62.7 69.7 62 69.7 61.2V44.6H77.3L83 51.9V59.8H80.8C80.2 57.9 78.4 56.5 76.3 56.5C73.7 56.5 71.5 58.7 71.5 61.3C71.5 63.9 73.6 66.1 76.3 66.1C78.4 66.1 80.2 64.7 80.8 62.8H84.5C85.3 62.8 86 62.1 86 61.3V51.4C86 51 85.9 50.7 85.7 50.4ZM50.3 63C49.3 63 48.5 62.2 48.5 61.2C48.5 60.2 49.3 59.4 50.3 59.4C51.3 59.4 52.1 60.2 52.1 61.2C52.1 62.2 51.2 63 50.3 63ZM76.4 63C75.4 63 74.6 62.2 74.6 61.2C74.6 60.2 75.4 59.4 76.4 59.4C77.4 59.4 78.2 60.2 78.2 61.2C78.2 62.2 77.3 63 76.4 63Z" fill="black"/>
<path d="M58.4 44.6C59.2 44.6 59.9 43.9 59.9 43.1C59.9 42.3 59.2 41.6 58.4 41.6H43.8C43 41.6 42.3 42.3 42.3 43.1C42.3 43.9 43 44.6 43.8 44.6H58.4Z" fill="black"/>
<path d="M56.7 49.7C56.7 48.9 56 48.2 55.2 48.2H40.5C39.7 48.2 39 48.9 39 49.7C39 50.5 39.7 51.2 40.5 51.2H55.2C56 51.2 56.7 50.5 56.7 49.7Z" fill="black"/>
</g>
<defs>
<clipPath id="clip0_3:1228">
<rect width="47" height="31" fill="white" transform="translate(39 35)"/>
</clipPath>
</defs>
</svg>
