<svg width="160" height="160" viewBox="0 0 160 160" fill="none" xmlns="http://www.w3.org/2000/svg">
<rect width="160" height="160" fill="#FFE17F"/>
<g clip-path="url(#clip0_1:1227)">
<path d="M26.0523 49.2579C20.5074 49.7452 15.8384 50.8507 14.5753 51.9303C13.8526 52.5465 13.8526 52.5465 14.3429 53.0865C14.9874 53.8062 18.0563 54.7315 21.5905 55.3228C25.5885 55.9908 34.1003 56.0162 35.3136 55.3741C36.5255 54.7061 36.9376 53.9605 36.9376 52.3927C36.9376 50.774 36.3185 49.9767 34.7198 49.5402C33.274 49.1543 28.9415 49 26.0523 49.2579Z" fill="#363636"/>
<path d="M39.7745 49.4883C39.6451 49.7715 39.5162 51.5962 39.5162 53.6001C39.5162 57.6611 39.6715 57.3784 37.3243 57.5332L36.2935 57.6103L36.0352 62.6986L34.8487 62.9818C32.2696 63.6498 30.8497 65.577 31.0572 68.2762C31.1851 70.2034 32.088 71.617 33.6358 72.3631C34.7447 72.8763 35.1055 72.9012 44.8819 72.9012C50.4268 72.9012 55.0191 72.9798 55.0704 73.0819C55.1212 73.2103 53.961 82.4891 52.4908 93.7206C51.046 104.951 49.8077 114.718 49.7823 115.387C49.731 117.004 50.6085 118.008 52.13 118.008C53.3673 118.008 54.1417 117.366 54.4513 116.106C54.5807 115.593 55.9469 105.773 57.4694 94.285C58.9914 82.8221 60.3322 73.4163 60.4098 73.4163C60.5128 73.4163 61.4928 74.8294 62.6022 76.552C65.5421 81.178 65.0011 80.8689 70.2375 80.8689H74.5959V86.4987L69.4631 86.5758C64.7429 86.6529 64.2531 86.7028 63.5818 87.191C62.009 88.3482 61.9568 88.606 61.9568 98.1676C61.9568 107.702 61.9832 107.96 63.4793 109.217L64.3304 109.913H95.6956L96.5462 109.217C98.0423 107.96 98.0667 107.702 98.0667 98.1676C98.0667 88.6061 98.0159 88.3483 96.4437 87.191C95.7728 86.7027 95.2826 86.6529 90.5619 86.5758L85.4301 86.4987V80.8689H89.7895C95.0239 80.8689 94.4829 81.178 97.4233 76.552C98.5337 74.8293 99.5131 73.4163 99.6167 73.4163C99.6929 73.4163 101.036 82.8221 102.556 94.285C104.079 105.773 105.446 115.593 105.575 116.106C105.884 117.366 106.657 118.008 107.896 118.008C109.418 118.008 110.295 117.004 110.243 115.387C110.217 114.718 108.979 104.951 107.534 93.7206C106.065 82.4892 104.903 73.2103 104.956 73.0819C105.006 72.9798 109.597 72.9012 115.145 72.9012C124.921 72.9012 125.281 72.8763 126.389 72.3631C127.937 71.617 128.839 70.2034 128.968 68.2762C129.175 65.577 127.757 63.6497 125.177 62.9818L123.99 62.6986L123.734 57.6103L122.702 57.5332C120.355 57.3784 120.508 57.6611 120.508 53.6001C120.508 51.5962 120.38 49.7715 120.252 49.4883C120.045 49.1284 119.709 49 118.884 49C118.265 49 117.646 49.1284 117.464 49.3086C117.258 49.5142 117.155 50.7739 117.155 53.2407C117.155 55.708 117.052 56.9678 116.845 57.1728C116.666 57.3525 115.944 57.4809 115.196 57.4809C113.57 57.4809 113.544 57.5331 113.544 60.5913V62.8784H46.4806V60.5913C46.4806 57.5332 46.4557 57.4809 44.8307 57.4809C44.0822 57.4809 43.3605 57.3525 43.1803 57.1728C42.9728 56.9677 42.8702 55.708 42.8702 53.2407C42.8702 50.7739 42.7672 49.5141 42.5606 49.3086C42.3799 49.1284 41.7603 49 41.1417 49C40.317 49 39.9815 49.1285 39.7745 49.4883ZM82.6173 89.6084C85.506 90.5068 88.0089 93.001 88.7833 95.7764C89.2218 97.3194 89.0929 99.9922 88.4991 101.56C87.8028 103.435 85.8145 105.569 83.9337 106.495C82.6437 107.137 82.1798 107.214 80.0128 107.214C77.8463 107.214 77.3819 107.137 76.0924 106.495C74.2081 105.569 72.2233 103.435 71.5265 101.56C70.9337 99.9922 70.8038 97.3194 71.2428 95.7764C71.9908 93.0528 74.4923 90.5069 77.3043 89.6084C79.3165 88.9659 80.6046 88.9659 82.6173 89.6084Z" fill="#363636"/>
<path d="M77.794 93.4375C75.7574 94.3633 74.2872 97.0869 74.7252 99.168C75.4991 102.845 79.5484 104.721 82.7208 102.87C84.7062 101.712 85.712 99.3232 85.172 97.0869C84.6036 94.6963 82.4376 92.9492 80.0128 92.9492C79.3673 92.9493 78.3873 93.1807 77.794 93.4375Z" fill="#363636"/>
<path d="M50.0919 49.1543C46.1715 49.8223 45.5787 50.2852 45.5787 52.5981C45.5787 54.4228 46.0426 55.0141 47.8468 55.5537C49.3966 56.0161 55.0192 56.0679 58.3468 55.6821C65.2076 54.8598 69.6686 53.1377 68.0455 51.9301C66.7804 51.0302 63.1432 50.0536 58.9913 49.54C56.5157 49.232 50.9952 49 50.0919 49.1543Z" fill="#363636"/>
<path d="M103.484 49.2579C97.1652 49.8482 91.6202 51.339 91.6202 52.4439C91.6202 54.1661 99.461 55.9136 107.25 55.9395C113.054 55.9395 114.446 55.2974 114.446 52.5982C114.446 50.774 113.827 49.9766 112.073 49.5142C110.424 49.1026 106.398 49 103.484 49.2579Z" fill="#363636"/>
<path d="M126.776 49.2833C124.996 49.5143 123.758 50.0538 123.346 50.774C122.959 51.5445 123.036 53.6778 123.5 54.3458C124.428 55.6568 125.152 55.8111 130.568 55.8111C134.23 55.8111 136.37 55.6822 138.435 55.3228C141.969 54.7315 145.038 53.8062 145.683 53.0865C146.173 52.5465 146.173 52.5465 145.45 51.9303C144.109 50.7994 139.492 49.7452 133.534 49.2579C130.053 48.9747 129.046 48.9747 126.776 49.2833Z" fill="#363636"/>
</g>
<defs>
<clipPath id="clip0_1:1227">
<rect width="132" height="69" fill="white" transform="translate(14 49)"/>
</clipPath>
</defs>
</svg>
